<svg width="20" height="20" viewBox="0 0 20 20" fill="none" xmlns="http://www.w3.org/2000/svg">
<g id="Copyright" clip-path="url(#clip0_21_751)">
<path id="Vector" d="M10 17.5C14.1421 17.5 17.5 14.1421 17.5 10C17.5 5.85786 14.1421 2.5 10 2.5C5.85786 2.5 2.5 5.85786 2.5 10C2.5 14.1421 5.85786 17.5 10 17.5Z" stroke="white" stroke-width="1.5" stroke-linecap="round" stroke-linejoin="round"/>
<path id="Vector_2" d="M12.5 11.875C12.1065 12.3997 11.5578 12.7873 10.9318 12.9829C10.3057 13.1784 9.63401 13.172 9.01179 12.9646C8.38956 12.7572 7.84837 12.3593 7.46487 11.8272C7.08137 11.2951 6.875 10.6559 6.875 10C6.875 9.34412 7.08137 8.70486 7.46487 8.17278C7.84837 7.6407 8.38956 7.24277 9.01179 7.03536C9.63401 6.82796 10.3057 6.82158 10.9318 7.01715C11.5578 7.21271 12.1065 7.60029 12.5 8.125" stroke="white" stroke-width="1.5" stroke-linecap="round" stroke-linejoin="round"/>
</g>
<defs>
<clipPath id="clip0_21_751">
<rect width="20" height="20" fill="white"/>
</clipPath>
</defs>
</svg>
