<svg width="39" height="41" viewBox="0 0 39 41" fill="none" xmlns="http://www.w3.org/2000/svg">
<path fill-rule="evenodd" clip-rule="evenodd" d="M15.6932 27.3438C16.7803 27.9868 18.0762 28.3083 19.5809 28.3083C20.6946 28.3083 21.6856 28.1392 22.554 27.8012C23.429 27.4565 24.1548 26.9759 24.7315 26.3594C25.3148 25.7363 25.7192 25.0104 25.9446 24.1818L23.1307 23.6747C22.9517 24.152 22.6932 24.553 22.3551 24.8779C22.017 25.2027 21.616 25.4479 21.152 25.6137C20.688 25.7727 20.1742 25.8523 19.6108 25.8523C18.7424 25.8523 17.9834 25.6667 17.3338 25.2955C16.6842 24.9176 16.1771 24.3708 15.8125 23.6548C15.4792 22.9883 15.3011 22.1895 15.2781 21.2585H26.1335V20.2046C26.1335 18.8191 25.9479 17.6425 25.5767 16.6747C25.2055 15.7003 24.6984 14.9082 24.0554 14.2983C23.4124 13.6885 22.6865 13.241 21.8778 12.956C21.0691 12.6709 20.2339 12.5284 19.3721 12.5284C17.9536 12.5284 16.714 12.8632 15.6534 13.5327C14.5994 14.2022 13.7774 15.1335 13.1875 16.3267C12.6041 17.5199 12.3125 18.8987 12.3125 20.4631C12.3125 22.0474 12.6041 23.4295 13.1875 24.6094C13.7774 25.7827 14.6127 26.6941 15.6932 27.3438ZM15.2831 19.0313C15.3188 18.3748 15.482 17.7616 15.7727 17.1918C16.1108 16.5355 16.588 16.0052 17.2045 15.6009C17.8276 15.1899 18.5568 14.9844 19.392 14.9844C20.161 14.9844 20.8305 15.1601 21.4005 15.5114C21.9773 15.8627 22.4247 16.3433 22.7429 16.9531C23.0611 17.5564 23.2201 18.2491 23.2201 19.0313H15.2831Z" fill="white" fill-opacity="0.8"/>
<path fill-rule="evenodd" clip-rule="evenodd" d="M16 1.02074C18.1658 -0.229691 20.8342 -0.229691 23 1.02074L34.6195 7.72929C36.7853 8.97972 38.1195 11.2906 38.1195 13.7915V27.2086C38.1195 29.7094 36.7853 32.0203 34.6195 33.2707L23 39.9793C20.8342 41.2297 18.1658 41.2297 16 39.9793L4.38043 33.2707C2.21462 32.0203 0.880432 29.7094 0.880432 27.2086V13.7915C0.880432 11.2906 2.21462 8.97972 4.38043 7.72929L16 1.02074ZM21.5 3.61881L33.1195 10.3274C34.3571 11.0419 35.1195 12.3624 35.1195 13.7915V27.2086C35.1195 28.6376 34.3571 29.9581 33.1195 30.6727L21.5 37.3812C20.2624 38.0957 18.7376 38.0957 17.5 37.3812L5.88043 30.6727C4.64283 29.9581 3.88043 28.6376 3.88043 27.2086V13.7915C3.88043 12.3624 4.64283 11.0419 5.88043 10.3274L17.5 3.61881C18.7376 2.90428 20.2624 2.90428 21.5 3.61881Z" fill="white" fill-opacity="0.8"/>
</svg>
