<svg width="24" height="24" viewBox="0 0 24 24" fill="none" xmlns="http://www.w3.org/2000/svg">
<g id="ic:baseline-whatsapp">
<path id="Vector" d="M19.8999 5.05555C18.9373 4.08318 17.7907 3.31221 16.527 2.78761C15.2633 2.26302 13.9077 1.9953 12.5395 2.00006C6.80649 2.00006 2.134 6.67255 2.134 12.4055C2.134 14.243 2.617 16.028 3.52 17.603L2.05 23L7.56249 21.551C9.08498 22.3805 10.7965 22.8215 12.5395 22.8215C18.2725 22.8215 22.9449 18.149 22.9449 12.416C22.9449 9.63354 21.8634 7.01905 19.8999 5.05555ZM12.5395 21.0575C10.9855 21.0575 9.46298 20.6375 8.12948 19.85L7.81449 19.661L4.5385 20.522L5.40999 17.33L5.19999 17.0045C4.33663 15.6258 3.87819 14.0322 3.877 12.4055C3.877 7.63855 7.76199 3.75356 12.529 3.75356C14.839 3.75356 17.0125 4.65655 18.64 6.29455C19.4458 7.09671 20.0844 8.05084 20.5188 9.10164C20.9532 10.1524 21.1747 11.279 21.1704 12.416C21.1914 17.183 17.3065 21.0575 12.5395 21.0575ZM17.2855 14.5895C17.023 14.4635 15.742 13.8335 15.511 13.739C15.2695 13.655 15.1015 13.613 14.923 13.865C14.7445 14.1275 14.251 14.7155 14.104 14.8835C13.957 15.062 13.7995 15.083 13.537 14.9465C13.2745 14.8205 12.4345 14.537 11.4475 13.655C10.6705 12.962 10.156 12.1115 9.99848 11.849C9.85148 11.5865 9.97748 11.45 10.114 11.3135C10.2295 11.198 10.3765 11.009 10.5025 10.862C10.6285 10.715 10.681 10.5995 10.765 10.4315C10.849 10.253 10.807 10.106 10.744 9.98004C10.681 9.85404 10.156 8.57304 9.94598 8.04804C9.73598 7.54405 9.51548 7.60705 9.35798 7.59655H8.85398C8.67548 7.59655 8.40248 7.65955 8.16098 7.92204C7.92999 8.18454 7.25799 8.81454 7.25799 10.0955C7.25799 11.3765 8.19248 12.6155 8.31848 12.7835C8.44448 12.962 10.156 15.587 12.76 16.7105C13.3795 16.9835 13.8625 17.141 14.2405 17.2565C14.86 17.456 15.427 17.4245 15.8785 17.3615C16.3825 17.288 17.422 16.7315 17.632 16.1225C17.8525 15.5135 17.8525 14.999 17.779 14.8835C17.7055 14.768 17.548 14.7155 17.2855 14.5895Z" fill="white" fill-opacity="0.8"/>
</g>
</svg>
